Coordinates
version=1
nRows=9
nColumns=24
inDegrees=yes

Units are S.I. units (second, meters, Newtons, ...)
Angles are in degrees.

endheader
time	pelvis_tilt	pelvis_list	pelvis_rotation	pelvis_tx	pelvis_ty	pelvis_tz	hip_flexion_r	hip_adduction_r	hip_rotation_r	knee_angle_r	ankle_angle_r	subtalar_angle_r	mtp_angle_r	hip_flexion_l	hip_adduction_l	hip_rotation_l	knee_angle_l	ankle_angle_l	subtalar_angle_l	mtp_angle_l	lumbar_extension	lumbar_bending	lumbar_rotation
      3.32500000	     -6.94923850	     -2.29746425	     -8.41771546	     -0.98117257	     -0.04123478	     -0.15428773	     -6.50216971	      7.96121148	      6.27782975	    -26.78553449	      4.87157273	     17.11000649	     20.87119800	     37.92559123	     -2.03753634	    -14.58191198	    -14.47334411	      4.99051888	     12.40711365	    -11.65032749	      6.18433023	      3.23231814	      8.99157220
      3.33000000	     -7.02553404	     -1.96715475	     -8.58121634	     -0.97340875	     -0.04187950	     -0.15441932	     -6.23217404	      7.34362633	      5.80556963	    -27.87536166	      3.93730312	     18.22416380	     21.77240946	     37.90927914	     -1.74749102	    -14.76274820	    -15.01594934	      4.13178677	     11.35105884	    -11.63346123	      6.43506046	      2.90901414	      9.04677840
      3.33500000	     -7.06831019	     -1.57187148	     -8.66625261	     -0.96540482	     -0.04238612	     -0.15466406	     -6.01006376	      6.63018344	      5.26582218	    -28.84616415	      2.63265643	     19.16084467	     23.28082601	     37.82950614	     -1.31783631	    -14.81264521	    -15.48726825	      2.96306975	      9.99009618	    -11.23493718	      6.70506045	      2.50179910	      9.02146083
      3.34000000	     -7.09646396	     -1.13363676	     -8.76100443	     -0.95753087	     -0.04281272	     -0.15482230	     -5.72758327	      5.87050198	      4.79523161	    -29.87257391	      1.16302553	     20.04982411	     25.07651513	     37.76591067	     -0.87450072	    -14.91564435	    -15.98452402	      1.58900326	      8.63316824	    -10.54653352	      6.92663249	      2.02305708	      8.95452166
      3.34500000	     -7.14269134	     -0.67664228	     -8.82678662	     -0.94959325	     -0.04320067	     -0.15508012	     -5.35921576	      5.04252798	      4.16861678	    -30.99017632	     -0.37018634	     21.20921683	     26.54231525	     37.75119994	     -0.39322298	    -14.91183030	    -16.56667229	      0.34251606	      7.33531344	    -10.22145423	      7.18020038	      1.54766341	      8.95969269
      3.35000000	     -7.15953260	     -0.15631134	     -8.85402229	     -0.94165278	     -0.04347286	     -0.15531498	     -4.99221182	      4.14816838	      3.61248541	    -32.06455427	     -2.16895689	     22.18621560	     28.46670193	     37.73442421	      0.16918837	    -14.92137214	    -17.17863992	     -0.99267838	      5.99387413	     -9.91022145	      7.40387408	      0.96666562	      8.81636880
      3.35500000	     -7.20545766	      0.38233640	     -8.84674607	     -0.93368426	     -0.04374024	     -0.15565165	     -4.52432891	      3.19403140	      2.93656468	    -33.23319978	     -4.06113444	     23.33264073	     30.05353012	     37.77522918	      0.78131281	    -14.74437257	    -17.86967050	     -2.13219640	      4.72263017	     -9.99838536	      7.66073638	      0.38453449	      8.73839157
      3.36000000	     -7.25460318	      0.93084503	     -8.84613172	     -0.92586215	     -0.04398915	     -0.15599556	     -3.97838347	      2.21781412	      2.34644499	    -34.48348049	     -6.01482523	     24.58289356	     31.52339510	     37.87687969	      1.39026750	    -14.59379204	    -18.66826893	     -3.15439423	      3.53687346	    -10.32496258	      7.88939955	     -0.20783320	      8.64161636
      3.36500000	     -7.26796753	      1.51473677	     -8.72675530	     -0.91775362	     -0.04412280	     -0.15638675	     -3.51692279	      1.19897060	      1.66044003	    -35.56320143	     -8.47300318	     25.36503458	     33.52590025	     37.90833428	      2.13080735	    -14.25073719	    -19.44879403	     -3.99917615	      2.41575040	    -10.86189303	      8.13489563	     -0.88135377	      8.39232403
